
nColumns=19
nRows=63
DataType=double
version=3
OpenSimVersion=4.4-2022-10-11-798caa840
endheader
time	ground_force_calcn_r_vx	ground_force_calcn_r_vy	ground_force_calcn_r_vz	ground_force_calcn_r_px	ground_force_calcn_r_py	ground_force_calcn_r_pz	ground_force_calcn_r_mx	ground_force_calcn_r_my	ground_force_calcn_r_mz	ground_force_calcn_l_vx	ground_force_calcn_l_vy	ground_force_calcn_l_vz	ground_force_calcn_l_px	ground_force_calcn_l_py	ground_force_calcn_l_pz	ground_force_calcn_l_mx	ground_force_calcn_l_my	ground_force_calcn_l_mz
10.6	6.45348	600.426	-45.3899	-0.26425	0	-0.464563	-0.03184	-2.96236	0.223944	-3.13531	262.639	46.7449	-0.237631	0	-0.898741	-0.0143308	1.20046	0.21366
10.61	6.79569	602.497	-46.2554	-0.263941	0	-0.46421	-0.0335098	-2.97093	0.228087	-3.6687	264.139	47.5327	-0.236676	0	-0.899062	-0.016501	1.18804	0.213792
10.62	6.9872	604.877	-47.098	-0.263539	0	-0.463837	-0.0343396	-2.97276	0.23147	-4.23426	265.592	48.2842	-0.235635	0	-0.899398	-0.0187807	1.17802	0.214161
10.63	7.02356	607.501	-47.8953	-0.263045	0	-0.463451	-0.0342984	-2.96664	0.233889	-4.83615	266.962	48.9886	-0.234511	0	-0.899747	-0.0212096	1.1708	0.214846
10.64	6.90572	610.2910000000001	-48.6279	-0.262463	0	-0.463053	-0.0334037	-2.95204	0.235218	-5.47511	268.221	49.6379	-0.233308	0	-0.900109	-0.023821	1.16697	0.215964
10.65	6.64008	613.1559999999999	-49.2804	-0.261809	0	-0.462651	-0.0317198	-2.92905	0.235413	-6.14718	269.348	50.226	-0.232044	0	-0.900479	-0.026643	1.1674	0.217688
10.66	6.23866	616.0069999999999	-49.8419	-0.261096	0	-0.462249	-0.0293527	-2.8983	0.234504	-6.84341	270.326	50.7491	-0.23074	0	-0.900853	-0.0296959	1.17304	0.220218
10.67	5.72129	618.774	-50.3053	-0.26035	0	-0.461854	-0.0264513	-2.86079	0.232577	-7.55052	271.147	51.2058	-0.229427	0	-0.901224	-0.0329913	1.18475	0.223739
10.68	5.11459	621.402	-50.668	-0.259595	0	-0.461474	-0.0231932	-2.81788	0.229765	-8.251939999999999	271.803	51.5969	-0.228132	0	-0.901583	-0.0365256	1.20308	0.228383
10.69	4.44921	623.854	-50.9315	-0.258858	0	-0.461115	-0.0197633	-2.77114	0.226237	-8.92909	272.286	51.9239	-0.226889	0	-0.901929	-0.0402775	1.22823	0.234219
10.7	3.75825	626.088	-51.0995	-0.258167	0	-0.460782	-0.0163404	-2.72215	0.222174	-9.56317	272.583	52.1873	-0.225724	0	-0.9022520000000001	-0.0442093	1.26012	0.241255
10.71	3.07517	628.049	-51.1767	-0.257546	0	-0.460479	-0.013085	-2.67238	0.217759	-10.1364	272.672	52.3843	-0.224656	0	-0.90255	-0.0482678	1.29841	0.249444
10.72	2.4334	629.667	-51.1676	-0.257016	0	-0.46021	-0.0101375	-2.62317	0.213163	-10.6334	272.526	52.5092	-0.223701	0	-0.902819	-0.0523877	1.34266	0.258699
10.73	1.86612	630.866	-51.076	-0.256599	0	-0.459978	-0.00761885	-2.57565	0.20853	-11.0411	272.125	52.5539	-0.22287	0	-0.90305	-0.0564965	1.39244	0.268914
10.74	1.40217	631.582	-50.9055	-0.256309	0	-0.459784	-0.0056181	-2.53057	0.203963	-11.3496	271.464	52.5099	-0.222171	0	-0.903241	-0.0605134	1.44739	0.279972
10.75	1.06151	631.78	-50.6598	-0.256155	0	-0.459627	-0.00418084	-2.48833	0.199528	-11.5525	270.557	52.3712	-0.221608	0	-0.903383	-0.0643577	1.50724	0.291754
10.76	0.854425	631.46	-50.3426	-0.256138	0	-0.459509	-0.00331352	-2.44885	0.195232	-11.6491	269.439	52.1348	-0.221184	0	-0.90347	-0.06795909999999999	1.57187	0.304147
10.77	0.783182	630.657	-49.9584	-0.256256	0	-0.459426	-0.00299472	-2.4115	0.19103	-11.6437	268.165	51.802	-0.220899	0	-0.903498	-0.0712579	1.64113	0.317021
10.78	0.844022	629.443	-49.5136	-0.256498	0	-0.459375	-0.00318494	-2.37522	0.186841	-11.5466	266.803	51.3783	-0.22075	0	-0.903461	-0.0742091	1.71473	0.330206
10.79	1.0322	627.91	-49.0173	-0.256852	0	-0.459353	-0.00384465	-2.33879	0.182576	-11.3724	265.428	50.873	-0.220732	0	-0.903358	-0.07678740000000001	1.7922	0.3435
10.8	1.34565	626.158	-48.4813	-0.257301	0	-0.459353	-0.00494521	-2.30111	0.178167	-11.1382	264.121	50.298	-0.22084	0	-0.903188	-0.0789849	1.87297	0.356679
10.81	1.78675	624.288	-47.9191	-0.257827	0	-0.45937	-0.00647231	-2.26142	0.173582	-10.8608	262.963	49.6671	-0.221066	0	-0.902948	-0.0808014	1.95638	0.369511
10.82	2.36278	622.401	-47.3478	-0.25841	0	-0.459397	-0.00842563	-2.21947	0.168842	-10.5532	262.031	48.9967	-0.221399	0	-0.902639	-0.0822247	2.04159	0.381754
10.83	3.08403	620.596	-46.789	-0.25903	0	-0.459425	-0.0108115	-2.17558	0.164025	-10.2242	261.394	48.3044	-0.221831	0	-0.902264	-0.0832186	2.1276	0.39317
10.84	3.95787	618.9690000000001	-46.2694	-0.259664	0	-0.459446	-0.0136231	-2.1305	0.15926	-9.87773	261.11	47.6088	-0.22235	0	-0.90183	-0.08372309999999999	2.21316	0.40353
10.85	4.98514	617.611	-45.8202	-0.260287	0	-0.459449	-0.0168334	-2.0855	0.154722	-9.514670000000001	261.22	46.9282	-0.222942	0	-0.901349	-0.0836664	2.29701	0.412659
10.86	6.1572	616.609	-45.4734	-0.260875	0	-0.459423	-0.0203938	-2.04232	0.150616	-9.13386	261.745	46.2802	-0.223588	0	-0.900832	-0.0829824	2.37799	0.420462
10.87	7.45007	616.047	-45.2587	-0.261399	0	-0.459359	-0.0242241	-2.0031	0.14716	-8.734249999999999	262.687	45.6801	-0.224267	0	-0.900296	-0.0816312	2.4551	0.426931
10.88	8.81878	616.004	-45.2009	-0.261828	0	-0.459248	-0.0282057	-1.97021	0.144569	-8.31657	264.03	45.1414	-0.224952	0	-0.899759	-0.0796099	2.52741	0.432113
10.89	10.1943	616.543	-45.3175	-0.26213	0	-0.459084	-0.0321811	-1.94628	0.143057	-7.88436	265.734	44.675	-0.225609	0	-0.899239	-0.0769647	2.59402	0.436104
10.9	11.484	617.704	-45.6171	-0.262271	0	-0.458859	-0.0359544	-1.93391	0.142818	-7.4447	267.74	44.2894	-0.226207	0	-0.898755	-0.07380009999999999	2.65413	0.439046
10.91	12.5773	619.497	-46.0983	-0.262225	0	-0.458572	-0.0392972	-1.9356	0.144032	-7.0084	269.963	43.9893	-0.226708	0	-0.898323	-0.0702793	2.70715	0.441119
10.92	13.3589	621.897	-46.7495	-0.261967	0	-0.458219	-0.0419589	-1.95331	0.146835	-6.58962	272.303	43.776	-0.227078	0	-0.89796	-0.0666129	2.75264	0.442521
10.93	13.7282	624.845	-47.5491	-0.261487	0	-0.457805	-0.0436772	-1.98798	0.15128	-6.20406	274.648	43.6468	-0.227289	0	-0.8976769999999999	-0.0630322	2.79038	0.443445
10.94	13.6175	628.252	-48.4668	-0.260787	0	-0.457337	-0.0441978	-2.0391	0.157307	-5.86654	276.893	43.5961	-0.227314	0	-0.897482	-0.0597563	2.82042	0.444068
10.95	13.0083	632.008	-49.4651	-0.259886	0	-0.456825	-0.0433138	-2.1044	0.164704	-5.59015	278.949	43.6158	-0.22714	0	-0.897377	-0.0569759	2.84311	0.444541
10.96	11.9386	635.986	-50.4996	-0.258814	0	-0.456282	-0.0409194	-2.17984	0.173087	-5.38593	280.752	43.6957	-0.226762	0	-0.897362	-0.054849	2.85911	0.444987
10.97	10.4926	640.047	-51.5226	-0.257617	0	-0.455725	-0.0370495	-2.26	0.181926	-5.26171	282.258	43.8238	-0.226184	0	-0.897433	-0.0534893	2.86937	0.445502
10.98	8.780189999999999	644.047	-52.4858	-0.256339	0	-0.455173	-0.0318838	-2.33875	0.190593	-5.22033	283.44	43.9852	-0.225423	0	-0.89758	-0.0529497	2.87492	0.446141
10.99	6.9152	647.847	-53.3456	-0.255033	0	-0.454645	-0.0257266	-2.41018	0.198461	-5.25853	284.278	44.1622	-0.224504	0	-0.897792	-0.0532142	2.87678	0.446903
11	5.00239	651.326	-54.0666	-0.253744	0	-0.454153	-0.0189668	-2.46953	0.204996	-5.36665	284.756	44.334	-0.223457	0	-0.898057	-0.0541996	2.87585	0.447744
11.01	3.12937	654.384	-54.6259	-0.252515	0	-0.453713	-0.0120199	-2.51349	0.209818	-5.53008	284.86	44.4777	-0.222318	0	-0.898357	-0.0557744	2.87299	0.448586
11.02	1.36504	656.951	-55.0132	-0.251383	0	-0.453336	-0.00527823	-2.54024	0.21272	-5.73153	284.576	44.5688	-0.221119	0	-0.898679	-0.0577848	2.86908	0.44934
11.03	-0.237801	658.974	-55.2294	-0.250378	0	-0.453029	0.000919968	-2.54934	0.213663	-5.95109	283.897	44.5828	-0.219895	0	-0.899007	-0.0600568	2.86501	0.449917
11.04	-1.63978	660.417	-55.2836	-0.249527	0	-0.4528	0.00631013	-2.54139	0.21274	-6.16647	282.821	44.4969	-0.218679	0	-0.899327	-0.0623975	2.86182	0.450257
11.05	-2.81314	661.259	-55.1887	-0.248857	0	-0.452652	0.0107111	-2.51776	0.210133	-6.35521	281.357	44.2937	-0.217508	0	-0.899622	-0.06461210000000001	2.8605	0.450325
11.06	-3.73929	661.485	-54.9591	-0.248385	0	-0.452592	0.0140212	-2.48037	0.20608	-6.49792	279.532	43.9638	-0.216416	0	-0.89988	-0.0665245	2.86179	0.450093
11.07	-4.40758	661.097	-54.6088	-0.248127	0	-0.452621	0.0162113	-2.43154	0.200853	-6.581	277.387	43.5078	-0.215436	0	-0.900088	-0.06799760000000001	2.86607	0.44954
11.08	-4.81573	660.099	-54.149	-0.248093	0	-0.452741	0.017319	-2.37394	0.194739	-6.59833	274.98	42.936	-0.214599	0	-0.900237	-0.0689461	2.87327	0.448639
11.09	-4.96985	658.498	-53.5873	-0.24829	0	-0.452953	0.0174387	-2.3106	0.188032	-6.55131	272.377	42.2665	-0.213931	0	-0.900319	-0.0693351	2.88267	0.447323
11.1	-4.88311	656.292	-52.9276	-0.248717	0	-0.453256	0.0167027	-2.24485	0.181039	-6.4473	269.644	41.5222	-0.213453	0	-0.900332	-0.0691677	2.89278	0.445457
11.11	-4.57415	653.461	-52.1721	-0.249371	0	-0.453648	0.0152609	-2.18016	0.174063	-6.29663	266.841	40.7285	-0.213177	0	-0.900273	-0.0684651	2.90144	0.442853
11.12	-4.06745	649.967	-51.3227	-0.250244	0	-0.454129	0.0132666	-2.11997	0.167397	-6.10942	264.02	39.9104	-0.213117	0	-0.900141	-0.0672498	2.90621	0.439316
11.13	-3.39489	645.7619999999999	-50.3834	-0.251324	0	-0.45469	0.0108687	-2.06741	0.161302	-5.89352	261.225	39.091	-0.213282	0	-0.89994	-0.0655338	2.90473	0.434677
11.14	-2.59737	640.789	-49.3614	-0.252592	0	-0.455329	0.00820735	-2.02481	0.155975	-5.65461	258.5	38.291	-0.21368	0	-0.8996690000000001	-0.0633247	2.89488	0.428812
11.15	-1.72482	634.989	-48.2675	-0.254024	0	-0.456034	0.00541459	-1.99337	0.151522	-5.39923	255.894	37.5301	-0.214311	0	-0.899331	-0.0606637	2.87513	0.421674
11.16	-0.833646	628.306	-47.1157	-0.255592	0	-0.456796	0.002618	-1.97315	0.147963	-5.13664	253.465	36.8273	-0.215173	0	-0.898927	-0.0576502	2.84472	0.413324
11.17	0.0175052	620.6950000000001	-45.9209	-0.257265	0	-0.457604	-5.5367e-05	-1.9632	0.145243	-4.8782	251.282	36.2016	-0.216258	0	-0.898462	-0.0544284	2.80368	0.403919
11.18	0.773683	612.126	-44.6969	-0.259009	0	-0.458446	-0.00247962	-1.96184	0.143252	-4.63418	249.42	35.6711	-0.217551	0	-0.89794	-0.0511464	2.75279	0.393694
11.19	1.38993	602.595	-43.4529	-0.260795	0	-0.459309	-0.00453647	-1.96675	0.141822	-4.40968	247.953	35.2524	-0.219031	0	-0.897365	-0.0479017	2.69347	0.382941
11.2	1.83582	592.14	-42.1928	-0.262595	0	-0.460185	-0.00612465	-1.97549	0.140763	-4.20229	246.95	34.9591	-0.220674	0	-0.89675	-0.0447152	2.62772	0.371989
11.21	2.09582	580.854	-40.9164	-0.264386	0	-0.461065	-0.00716532	-1.98586	0.139887	-4.00277	246.467	34.803	-0.222451	0	-0.896102	-0.0415404	2.55781	0.361182
11.22	2.16831	568.896	-39.622	-0.266149	0	-0.461943	-0.00760855	-1.99624	0.139033	-3.79711	246.538	34.7933	-0.224328	0	-0.895434	-0.0382929	2.48628	0.350882
